<svg xmlns="http://www.w3.org/2000/svg" width="184" height="80" fill="none" viewBox="0 0 184 80">
    <path fill="#25282B" fill-rule="evenodd" d="M100.406 40.496c0 5.956-4.185 9.903-10.07 9.903-6.424 0-10.997-4.8-10.997-10.7 0-5.985 4.638-10.762 10.755-10.762 3.898 0 7.21 1.975 8.939 4.8l-3.459 2c-1.001-1.765-3.312-3.025-6.023-2.845-3.585.238-6.282 3.376-6.194 6.99.091 3.734 2.795 6.534 7 6.534 3.225 0 5.276-1.563 5.98-3.921h-6.212v-3.6h10.281v1.6zm18.496 5.602v3.892h-10.425c-.297 0-.592-.059-.866-.173-.275-.114-.524-.282-.735-.493-.21-.212-.377-.463-.49-.74-.114-.276-.172-.572-.172-.871V31.627c0-.3.058-.595.172-.872.113-.276.28-.527.49-.739.21-.212.46-.38.735-.494.274-.114.569-.173.866-.173h10.279v3.893h-8.498v4.393h7.771v3.832h-7.771v4.629l8.644.002zm21.685 2.003V29.349h-4.045V41.52l-8.187-11.306c-.186-.267-.434-.486-.723-.637-.288-.15-.608-.23-.933-.23-.537 0-1.051.216-1.431.598-.379.382-.592.9-.592 1.44v18.606h4.045V37.79l8.187 11.333c.187.267.435.486.723.637.289.15.609.23.934.23h.145c.247 0 .491-.05.719-.144.227-.095.435-.234.609-.41.174-.175.313-.384.407-.613.094-.23.143-.475.142-.723zm6.565-4.862v-13.89h4.016v13.564c0 2 1.06 3.51 3.809 3.51s3.809-1.505 3.809-3.51V29.35h4.044v13.89c0 4.451-3.34 7.165-7.853 7.165-4.487-.005-7.825-2.714-7.825-7.166zm24.645.029l-3.458 2.034c1.114 3.067 3.869 5.098 8.06 5.102 4.366 0 7.442-2.356 7.442-6.223 0-4.211-3.449-5.305-6.699-6.336l-.01-.004c-3.104-.944-3.899-1.62-3.899-2.889 0-1.18.997-2.065 2.697-2.065 2.08 0 3.194 1.092 3.927 2.654l3.399-1.975c-1.377-2.896-3.957-4.63-7.326-4.63-3.517 0-6.74 2.242-6.74 6.133 0 3.923 3.047 5.25 6.183 6.164 3.048.884 4.424 1.474 4.424 3.008 0 1.15-.849 2.181-3.282 2.181-2.549 0-3.985-1.238-4.718-3.154z" clip-rule="evenodd"/>
    <path fill="#E0473E" d="M39.75 11.146c-15.836 0-28.673 12.918-28.673 28.852 0 15.934 12.837 28.855 28.672 28.855v11.143C17.797 79.996 0 62.092 0 39.998 0 17.904 17.797 0 39.75 0v11.146z"/>
    <path fill="#FFAB3F" d="M39.75 22.291c4.666 0 9.143 1.866 12.443 5.187 3.3 3.32 5.154 7.825 5.154 12.522 0 4.696-1.854 9.2-5.154 12.522-3.3 3.32-7.776 5.186-12.444 5.186v11.145c15.836 0 28.674-12.918 28.674-28.853 0-15.936-12.837-28.854-28.674-28.854v11.145z"/>
    <path fill="#50BFBF" d="M39.75 57.708V22.29c-4.668 0-9.144 1.866-12.445 5.187-3.3 3.32-5.154 7.825-5.154 12.521 0 4.697 1.854 9.201 5.154 12.522 3.3 3.321 7.777 5.187 12.444 5.187z"/>
</svg>
