<svg width="16" height="16" viewBox="0 0 16 16" fill="none" xmlns="http://www.w3.org/2000/svg">
<path d="M8.85742 2.22933C5.67049 2.22933 3.08676 4.81307 3.08676 8C3.08676 11.1869 5.67049 13.7712 8.85742 13.7712V16C4.43929 16 0.857422 12.4189 0.857422 8C0.857422 3.58107 4.43929 0 8.85742 0V2.22933Z" fill="#E0473E"/>
<path d="M8.85742 4.49283C9.78756 4.49283 10.6796 4.86233 11.3373 5.52004C11.995 6.17775 12.3645 7.06979 12.3645 7.99993C12.3645 8.93007 11.995 9.82212 11.3373 10.4798C10.6796 11.1375 9.78756 11.507 8.85742 11.507V13.7142C12.0133 13.7142 14.5717 11.1558 14.5717 7.99993C14.5717 4.84402 12.0136 2.28564 8.85742 2.28564V4.49283Z" fill="#FFAB3F"/>
<path d="M8.85631 11.4289V4.57178C7.94699 4.57178 7.07492 4.933 6.43194 5.57598C5.78896 6.21896 5.42773 7.09104 5.42773 8.00035C5.42773 8.90966 5.78896 9.78173 6.43194 10.4247C7.07492 11.0677 7.94699 11.4289 8.85631 11.4289V11.4289Z" fill="#25282B"/>
</svg>
