<svg xmlns="http://www.w3.org/2000/svg" width="100" height="100" fill="none" viewBox="0 0 100 100">
    <path fill="#50BFBF" fill-rule="evenodd" d="M48.976 82.726c13.707 0 25.461-8.363 30.437-20.266-4.17.785-8.304-1.766-9.42-5.932-.149-.553-.236-1.108-.268-1.658-6.536-1.08-12.163-5.861-13.99-12.677-1.32-4.925-.39-9.922 2.16-13.902-1.563-.668-2.815-2.021-3.289-3.79-.715-2.669.574-5.401 2.945-6.6-2.735-.735-5.61-1.127-8.575-1.127C30.764 16.774 16 31.538 16 49.75s14.764 32.976 32.976 32.976zM65.72 21.671l.33-.137c-.146-.089-.294-.177-.443-.264.028.086.053.173.077.262.013.046.024.093.036.14z" clip-rule="evenodd"/>
    <path fill="#0082D2" fill-rule="evenodd" d="M79.75 35c2.347 0 4.25-1.903 4.25-4.25s-1.903-4.25-4.25-4.25-4.25 1.903-4.25 4.25S77.403 35 79.75 35zM40 34.25c0 1.795-1.455 3.25-3.25 3.25s-3.25-1.455-3.25-3.25S34.955 31 36.75 31 40 32.455 40 34.25zm8.5 11.5c0 1.243-1.007 2.25-2.25 2.25S44 46.993 44 45.75s1.007-2.25 2.25-2.25 2.25 1.007 2.25 2.25zm23-8.5c0 1.243-1.007 2.25-2.25 2.25S67 38.493 67 37.25 68.007 35 69.25 35s2.25 1.007 2.25 2.25zm6.25 8.25c1.243 0 2.25-1.007 2.25-2.25S78.993 41 77.75 41s-2.25 1.007-2.25 2.25 1.007 2.25 2.25 2.25zM55.5 62.25c0 2.9-2.35 5.25-5.25 5.25S45 65.15 45 62.25 47.35 57 50.25 57s5.25 2.35 5.25 5.25zM33.75 60.5c2.9 0 5.25-2.35 5.25-5.25S36.65 50 33.75 50s-5.25 2.35-5.25 5.25 2.35 5.25 5.25 5.25z" clip-rule="evenodd"/>
</svg>
