<svg xmlns="http://www.w3.org/2000/svg" width="20" height="21" fill="none" viewBox="0 0 20 21">
    <path fill="#fff" fill-rule="evenodd" d="M18 4.901c-.588.282-1.22.472-1.885.557.678-.437 1.199-1.13 1.444-1.955-.635.404-1.337.699-2.086.856-.598-.686-1.451-1.115-2.396-1.115-1.812 0-3.281 1.583-3.281 3.534 0 .277.028.546.084.805C7.152 7.436 4.734 6.03 3.114 3.89c-.283.524-.444 1.132-.444 1.779 0 1.226.58 2.308 1.46 2.942-.537-.018-1.044-.178-1.488-.441v.043c0 1.713 1.132 3.142 2.635 3.466-.276.082-.566.124-.865.124-.212 0-.418-.021-.618-.063.418 1.404 1.63 2.426 3.066 2.453-1.123.949-2.54 1.514-4.077 1.514-.265 0-.527-.016-.783-.048 1.453 1 3.179 1.586 5.032 1.586 6.038 0 9.34-5.384 9.34-10.055 0-.154-.003-.308-.009-.458.642-.499 1.198-1.12 1.637-1.83z" clip-rule="evenodd"/>
</svg>
