<svg xmlns="http://www.w3.org/2000/svg" width="20" height="21" fill="none" viewBox="0 0 20 21">
    <g clip-path="url(#clip0)">
        <path fill="#fff" d="M5.805.244C2.608.244 0 2.852 0 6.05v8.39c0 3.197 2.608 5.805 5.805 5.805h8.39c3.197 0 5.805-2.608 5.805-5.805v-8.39C20 2.852 17.392.244 14.195.244h-8.39zm0 1.539h8.39c2.364 0 4.267 1.899 4.267 4.266v8.39c0 2.365-1.9 4.267-4.267 4.267h-8.39c-2.364 0-4.267-1.9-4.267-4.267v-8.39c0-2.364 1.9-4.266 4.267-4.266zM15.77 3.32c-.637 0-1.154.517-1.154 1.154 0 .637.517 1.154 1.154 1.154.637 0 1.154-.517 1.154-1.154 0-.637-.517-1.154-1.154-1.154zM10 4.86c-2.966 0-5.385 2.418-5.385 5.384S7.035 15.63 10 15.63c2.966 0 5.385-2.42 5.385-5.385 0-2.966-2.42-5.384-5.385-5.384zm0 1.538c2.133 0 3.846 1.713 3.846 3.846 0 2.134-1.713 3.846-3.846 3.846s-3.846-1.712-3.846-3.846c0-2.133 1.713-3.846 3.846-3.846z"/>
    </g>
    <defs>
        <clipPath id="clip0">
            <path fill="#fff" d="M0 0H20V20H0z" transform="translate(0 0.244141)"/>
        </clipPath>
    </defs>
</svg>
