<svg xmlns="http://www.w3.org/2000/svg" width="184" height="80" fill="none" viewBox="0 0 184 80">
    <path fill="#fff" fill-rule="evenodd" d="M100.407 40.495c0 5.956-4.186 9.904-10.07 9.904-6.425 0-10.997-4.8-10.997-10.701 0-5.985 4.637-10.762 10.755-10.762 3.898 0 7.209 1.975 8.938 4.8l-3.458 2c-1.002-1.765-3.313-3.025-6.024-2.845-3.585.238-6.281 3.376-6.194 6.99.092 3.734 2.796 6.534 7.001 6.534 3.224 0 5.275-1.563 5.979-3.922h-6.212v-3.6h10.282v1.602zm18.495 5.602v3.892h-10.425c-.297 0-.591-.058-.866-.173-.275-.114-.524-.282-.734-.493-.21-.212-.377-.463-.491-.74-.113-.276-.172-.572-.172-.871V31.626c0-.3.059-.595.172-.872.114-.276.281-.527.491-.739.21-.212.459-.38.734-.494.275-.114.569-.174.866-.174h10.279v3.894h-8.498v4.393h7.771v3.832h-7.771v4.629l8.644.002zm21.686 2.003V29.347h-4.045V41.52l-8.187-11.306c-.187-.267-.435-.486-.723-.637-.289-.15-.609-.23-.934-.23-.536 0-1.051.216-1.43.598-.38.382-.593.9-.593 1.44V49.99h4.045v-12.2l8.187 11.333c.187.268.435.486.724.637.288.15.609.23.934.23h.144c.247 0 .491-.05.719-.144.228-.095.435-.234.609-.41.175-.175.313-.384.407-.613.095-.23.143-.475.143-.723zm6.564-4.863v-13.89h4.016v13.565c0 2 1.06 3.51 3.809 3.51 2.75 0 3.81-1.505 3.81-3.51V29.348h4.043v13.89c0 4.451-3.34 7.165-7.853 7.165-4.486-.005-7.825-2.714-7.825-7.166zm24.646.03l-3.459 2.034c1.115 3.067 3.869 5.097 8.06 5.102 4.366 0 7.443-2.356 7.443-6.223 0-4.21-3.45-5.305-6.699-6.336l-.011-.004c-3.103-.944-3.898-1.62-3.898-2.889 0-1.18.996-2.065 2.696-2.065 2.08 0 3.195 1.092 3.927 2.655l3.399-1.976c-1.377-2.896-3.956-4.63-7.326-4.63-3.516 0-6.74 2.242-6.74 6.134 0 3.922 3.048 5.249 6.184 6.163 3.047.884 4.424 1.474 4.424 3.008 0 1.15-.85 2.181-3.282 2.181-2.549 0-3.986-1.238-4.718-3.154z" clip-rule="evenodd"/>
    <path fill="#E0473E" d="M39.75 11.146c-15.836 0-28.673 12.918-28.673 28.852 0 15.934 12.837 28.855 28.672 28.855v11.143C17.797 79.996 0 62.092 0 39.998 0 17.904 17.797 0 39.75 0v11.146z"/>
    <path fill="#FFAB3F" d="M39.75 22.291c4.667 0 9.144 1.866 12.444 5.187 3.3 3.32 5.154 7.825 5.154 12.522 0 4.696-1.854 9.2-5.154 12.522-3.3 3.32-7.777 5.186-12.444 5.186v11.145c15.836 0 28.674-12.918 28.674-28.853 0-15.936-12.837-28.854-28.674-28.854v11.145z"/>
    <path fill="#50BFBF" d="M39.749 57.708V22.29c-4.668 0-9.144 1.866-12.444 5.187-3.3 3.32-5.155 7.825-5.155 12.521 0 4.697 1.855 9.201 5.155 12.522 3.3 3.321 7.776 5.187 12.444 5.187z"/>
</svg>
