<?xml version="1.0" encoding="utf-8"?>
<!-- Generator: Adobe Illustrator 23.0.1, SVG Export Plug-In . SVG Version: 6.00 Build 0)  -->
<svg version="1.1" id="Layer_1" xmlns="http://www.w3.org/2000/svg" xmlns:xlink="http://www.w3.org/1999/xlink" x="0px" y="0px"
	 viewBox="0 0 20 20" style="enable-background:new 0 0 20 20;" xml:space="preserve">
<style type="text/css">
	.st0{fill:#25282b;}
</style>
<path class="st0" d="M3.9,0l1.6,4.5v3h1.4V4.4L8.5,0H7.1L6.2,3H6.1L5.3,0H3.9z M10.2,1.8c-0.6,0-1,0.1-1.3,0.4
	c-0.3,0.3-0.5,0.6-0.5,1v2.9c0,0.5,0.2,0.9,0.5,1.1c0.3,0.3,0.7,0.4,1.3,0.4c0.6,0,1-0.1,1.3-0.4c0.3-0.3,0.5-0.6,0.5-1.1V3.2
	c0-0.4-0.2-0.8-0.5-1C11.1,2,10.7,1.8,10.2,1.8z M12.9,2v4.6c0,0.3,0.1,0.6,0.2,0.7c0.1,0.2,0.4,0.2,0.6,0.2c0.2,0,0.4-0.1,0.7-0.2
	c0.2-0.1,0.5-0.3,0.7-0.5v0.6h1.2V2h-1.2v4.2c-0.1,0.1-0.2,0.2-0.4,0.3c-0.1,0.1-0.3,0.1-0.3,0.1c-0.1,0-0.2,0-0.3-0.1
	c-0.1-0.1-0.1-0.2-0.1-0.3V2H12.9z M10.1,2.8c0.2,0,0.3,0,0.4,0.1c0.1,0.1,0.1,0.2,0.1,0.3v3c0,0.1,0,0.3-0.1,0.3
	c-0.1,0.1-0.2,0.1-0.4,0.1c-0.2,0-0.3,0-0.4-0.1C9.7,6.5,9.7,6.3,9.7,6.2v-3c0-0.1,0.1-0.2,0.1-0.3C9.9,2.8,10,2.8,10.1,2.8z
	 M10,8.6c-2.4,0-4.7,0-7,0.1c-1.6,0-2.9,1.1-2.9,2.4C0,12.2,0,13.3,0,14.3c0,1.1,0,2.1,0.1,3.2c0,1.3,1.3,2.4,2.9,2.4
	C5.3,20,7.6,20,10,20c2.4,0,4.7,0,7-0.1c1.6,0,2.9-1.1,2.9-2.4c0.1-1.1,0.1-2.1,0.1-3.2c0-1.1,0-2.1-0.1-3.2c0-1.3-1.3-2.4-2.9-2.4
	C14.7,8.6,12.4,8.6,10,8.6z M1.5,10.3h4.2c0.1,0,0.1,0.1,0.1,0.1v1.1c0,0.1-0.1,0.1-0.1,0.1H4.5v6.3c0,0.1,0,0.1-0.1,0.1H3
	c-0.1,0-0.1-0.1-0.1-0.1v-6.3H1.5c-0.1,0-0.1-0.1-0.1-0.1v-1.1C1.4,10.4,1.5,10.3,1.5,10.3z M10.4,10.3h1.2c0.1,0,0.1,0.1,0.1,0.1
	v2.1c0.1-0.1,0.2-0.1,0.3-0.2c0.2-0.1,0.4-0.1,0.6-0.1c0.4,0,0.7,0.1,1,0.4c0.2,0.3,0.3,0.6,0.3,1.1v3.1c0,0.4-0.1,0.7-0.3,1
	c-0.2,0.2-0.5,0.4-0.9,0.4c-0.3,0-0.5-0.1-0.7-0.1c-0.1,0-0.2-0.1-0.3-0.2v0.1c0,0.1-0.1,0.1-0.1,0.1h-1.2c-0.1,0-0.1-0.1-0.1-0.1
	v-7.5C10.2,10.4,10.3,10.3,10.4,10.3z M16.6,12.2c0.6,0,1.1,0.2,1.4,0.5c0.3,0.3,0.5,0.7,0.5,1.3v1.4c0,0.1-0.1,0.1-0.1,0.1h-2.2
	v0.9c0,0.3,0,0.5,0.1,0.5c0,0,0.1,0.1,0.3,0.1c0.2,0,0.3,0,0.3-0.1c0,0,0.1-0.2,0.1-0.6V16c0-0.1,0.1-0.1,0.1-0.1h1.3
	c0.1,0,0.1,0.1,0.1,0.1v0.4c0,0.6-0.2,1.1-0.5,1.4c-0.3,0.3-0.8,0.5-1.5,0.5c-0.6,0-1-0.2-1.4-0.5c-0.3-0.3-0.5-0.8-0.5-1.3v-2.5
	c0-0.5,0.2-0.9,0.5-1.2C15.5,12.3,16,12.2,16.6,12.2z M5.7,12.3h1.2c0.1,0,0.1,0.1,0.1,0.1v4.2c0,0.1,0,0.2,0,0.2c0,0,0,0,0.1,0
	c0,0,0.1,0,0.3-0.1c0.1-0.1,0.2-0.1,0.3-0.2v-4.2c0-0.1,0.1-0.1,0.1-0.1h1.2c0.1,0,0.1,0.1,0.1,0.1v5.5c0,0.1,0,0.1-0.1,0.1H8
	c-0.1,0-0.1-0.1-0.1-0.1v-0.3c-0.2,0.1-0.3,0.2-0.5,0.3c-0.3,0.1-0.5,0.2-0.8,0.2c-0.3,0-0.6-0.1-0.7-0.3c-0.2-0.2-0.2-0.4-0.2-0.8
	v-4.6C5.6,12.4,5.7,12.3,5.7,12.3z M12.1,13.3c0,0-0.1,0-0.1,0c-0.1,0-0.1,0.1-0.2,0.1v3.3c0.1,0.1,0.1,0.1,0.2,0.1
	c0.1,0,0.1,0,0.2,0c0.2,0,0.2-0.1,0.2-0.1c0,0,0.1-0.1,0.1-0.3v-2.9c0-0.2,0-0.3-0.1-0.4C12.3,13.4,12.2,13.3,12.1,13.3z M16.6,13.4
	c-0.1,0-0.3,0-0.3,0.1c0,0.1-0.1,0.2-0.1,0.4v0.4h0.8v-0.4c0-0.3,0-0.4-0.1-0.4C16.8,13.4,16.7,13.4,16.6,13.4z"/>
</svg>
