<svg width="200" height="200" viewBox="0 0 200 200" fill="none" xmlns="http://www.w3.org/2000/svg">
<path d="M114.457 99.8605C114.457 91.7928 107.915 85.2637 99.86 85.2637C91.8049 85.2637 85.2632 91.8053 85.2632 99.8605C85.2632 107.928 91.8049 114.457 99.86 114.457C107.915 114.457 114.457 107.928 114.457 99.8605Z" fill="#FFAB3F"/>
<path d="M79.2092 135.108C90.6165 146.515 109.103 146.515 120.511 135.108L99.8599 114.457L79.2092 135.108Z" fill="#E0473E"/>
<path d="M79.2092 64.6121L99.8599 85.2628L120.511 64.6121C109.103 53.2048 90.6165 53.2048 79.2092 64.6121Z" fill="#E0473E"/>
<path d="M135.107 79.209L114.457 99.8597L135.107 120.51C146.515 109.103 146.515 90.6163 135.107 79.209Z" fill="#E0473E"/>
<path d="M64.6123 120.51L85.263 99.8597L64.6123 79.209C53.2051 90.6163 53.2051 109.103 64.6123 120.51Z" fill="#E0473E"/>
<path d="M125.514 154.72C141.637 154.72 154.72 141.649 154.72 125.514H125.514V154.72Z" fill="#FFAB3F"/>
<path d="M74.2061 45C58.0708 45 45 58.0708 45 74.2061H74.2061V45Z" fill="#FFAB3F"/>
<path d="M125.514 45V74.2061H154.72C154.72 58.0708 141.637 45 125.514 45Z" fill="#FFAB3F"/>
<path d="M74.2061 154.72V125.514H45C45 141.636 58.0708 154.72 74.2061 154.72Z" fill="#FFAB3F"/>
</svg>
