<svg width="200" height="200" viewBox="0 0 200 200" fill="none" xmlns="http://www.w3.org/2000/svg">
<path d="M96.9001 154.799C109.216 154.799 119.2 144.815 119.2 132.499C119.2 120.183 109.216 110.199 96.9001 110.199C84.5842 110.199 74.6001 120.183 74.6001 132.499C74.6001 144.815 84.5842 154.799 96.9001 154.799Z" fill="#FFAB3F"/>
<path d="M89.6 100.6C104.677 100.6 116.9 88.3774 116.9 73.3C116.9 58.2226 104.677 46 89.6 46C74.5227 46 62.3 58.2226 62.3 73.3C62.3 88.3774 74.5227 100.6 89.6 100.6Z" fill="#FFAB3F"/>
<path d="M59 96.5C50.7 96.5 44 103.2 44 111.5C44 119.8 50.7 126.5 59 126.5C67.3 126.5 74 119.8 74 111.5C74 103.2 67.3 96.5 59 96.5Z" fill="#50BFBF"/>
<path d="M139.3 110.199C130.3 110.199 123 117.499 123 126.499C123 135.499 130.3 142.799 139.3 142.799C148.3 142.799 155.6 135.499 155.6 126.499C155.6 117.499 148.3 110.199 139.3 110.199Z" fill="#50BFBF"/>
<path d="M138.4 96.1008C138.4 90.7008 134 86.3008 128.6 86.3008C123.2 86.3008 118.8 90.7008 118.8 96.1008C118.8 101.501 123.2 105.901 128.6 105.901C134.1 105.901 138.4 101.501 138.4 96.1008Z" fill="#50BFBF"/>
</svg>
