<svg width="200" height="200" viewBox="0 0 200 200" fill="none" xmlns="http://www.w3.org/2000/svg">
<path d="M162.2 150.6C162.2 125.7 142 105.5 117.1 105.5C92.2 105.5 72 125.7 72 150.6H162.2Z" fill="#0082D2"/>
<path d="M133.9 108.701C134.9 119.301 144.4 127.201 155 126.101L153.2 106.801L133.9 108.701Z" fill="#50BFBF"/>
<path d="M52 50C32 70.1 32 102.6 52 122.6C72 142.6 104.6 142.7 124.6 122.6L52 50Z" fill="#0082D2"/>
<path d="M117.1 105.5C117.1 105.5 107.5 105.5 99.7001 97.5996L63.1001 131C63.1001 131 72.0001 136.2 72.0001 150.5L117.1 105.5Z" fill="#0082D2"/>
<path d="M108 124.599C110.596 124.599 112.7 122.495 112.7 119.899C112.7 117.303 110.596 115.199 108 115.199C105.404 115.199 103.3 117.303 103.3 119.899C103.3 122.495 105.404 124.599 108 124.599Z" fill="#50BFBF"/>
<path d="M78.6001 76.5C78.6001 87.2 87.3001 95.9 98.0001 95.9L110.5 64L78.6001 76.5Z" fill="#50BFBF"/>
</svg>
