<svg xmlns="http://www.w3.org/2000/svg" width="101" height="116" fill="none" viewBox="0 0 101 116">
    <path fill="#50BFBF" d="M58.14 16.162c-23.16 0-41.938 18.731-41.938 41.835s18.777 41.84 41.939 41.84v16.157C26.03 115.994 0 90.033 0 57.997S26.032 0 58.14 0v16.162z"/>
    <path fill="#FFAB3F" d="M58.14 32.322c6.828 0 13.375 2.705 18.202 7.52 4.828 4.816 7.54 11.347 7.54 18.157 0 6.81-2.712 13.341-7.54 18.157-4.827 4.815-11.374 7.52-18.201 7.52v16.16c23.163 0 41.941-18.73 41.941-41.837 0-23.106-18.776-41.837-41.941-41.837v16.16z"/>
    <path fill="#25282B" d="M58.14 83.677V32.322c-6.826 0-13.373 2.706-18.2 7.521-4.828 4.815-7.54 11.346-7.54 18.156 0 6.81 2.712 13.342 7.54 18.157 4.827 4.816 11.374 7.52 18.2 7.52z"/>
</svg>
