<svg width="16" height="16" viewBox="0 0 16 16" fill="none" xmlns="http://www.w3.org/2000/svg">
<path d="M0 8C0 3.58172 3.58172 0 8 0V0C12.4183 0 16 3.58172 16 8V8C16 12.4183 12.4183 16 8 16V16C3.58172 16 0 12.4183 0 8V8Z" fill="#50BFBF"/>
<path d="M8.57227 3.672C6.18207 3.672 4.24427 5.6098 4.24427 8C4.24427 10.3902 6.18207 12.3284 8.57227 12.3284V14C5.25867 14 2.57227 11.3142 2.57227 8C2.57227 4.6858 5.25867 2 8.57227 2V3.672Z" fill="#E0473E"/>
<path d="M8.57227 5.36975C9.26987 5.36975 9.9389 5.64687 10.4322 6.14015C10.9255 6.63343 11.2026 7.30246 11.2026 8.00007C11.2026 8.69768 10.9255 9.36671 10.4322 9.85999C9.9389 10.3533 9.26987 10.6304 8.57227 10.6304V12.2858C10.9392 12.2858 12.858 10.367 12.858 8.00007C12.858 5.63313 10.9394 3.71436 8.57227 3.71436V5.36975Z" fill="#FFAB3F"/>
<path d="M8.57143 10.5716V5.42871C7.88944 5.42871 7.23539 5.69963 6.75315 6.18186C6.27092 6.6641 6 7.31815 6 8.00014C6 8.68213 6.27092 9.33618 6.75315 9.81841C7.23539 10.3007 7.88944 10.5716 8.57143 10.5716V10.5716Z" fill="#25282B"/>
</svg>
