<svg xmlns="http://www.w3.org/2000/svg" width="20" height="20" fill="none" viewBox="0 0 20 20">
    <path fill="#fff" fill-rule="evenodd" d="M17.5 10c0 4.142-3.358 7.5-7.5 7.5-4.142 0-7.5-3.358-7.5-7.5 0-4.142 3.358-7.5 7.5-7.5 4.142 0 7.5 3.358 7.5 7.5zm1.5 0c0 4.97-4.03 9-9 9s-9-4.03-9-9 4.03-9 9-9 9 4.03 9 9zM6.433 5.183C6.55 5.066 6.71 5 6.875 5c.166 0 .325.066.442.183.117.117.183.276.183.442 0 .166-.066.325-.183.442-.117.117-.276.183-.442.183-.166 0-.325-.066-.442-.183-.117-.117-.183-.276-.183-.442 0-.166.066-.325.183-.442zM6.25 13.75V6.875H7.5v6.875H6.25zm2.5-6.875v6.875h2.813c1.89 0 3.437-1.546 3.437-3.438 0-1.89-1.546-3.437-3.438-3.437H8.75zM10 8.125h1.563c1.215 0 2.187.972 2.187 2.188 0 1.215-.972 2.187-2.188 2.187H10V8.125z" clip-rule="evenodd"/>
</svg>
