<svg xmlns="http://www.w3.org/2000/svg" width="20" height="20" fill="none" viewBox="0 0 20 20">
    <path fill="#fff" fill-rule="evenodd" d="M2.5 2.5h15v15h-15v-15zM1 1h18v18H1V1zm11 4.6c0-.643.393-1.6 1.54-1.6 1.136 0 1.372.944 1.372.944l-.484.38s-.246-.655-.888-.655c-.359 0-.887.379-.887 1.035v1.417c0 .708.292 1.22.798 1.22.642 0 .979-.564.979-1.404h-.81v-.564h1.372c0 .102.002.209.004.318.018 1.038.041 2.307-1.546 2.309C12.404 9 12 8.172 12 7.306V5.6zM6.59 7.142c-.756.021-1.628.046-2.463.014v.4c.081.017.158.03.23.042.612.107.872.152.872 1.162v5.514c0 1.013-.257 1.057-.859 1.16l-.243.043v.415l.332-.013c.372-.016.861-.038 1.358-.038.627 0 1.442.026 1.793.051v-.415l-.31-.039c-.756-.09-.994-.117-.994-1.164v-2.33c.32.023.595.023 1.003.023h.075c.853 1.53 1.667 2.671 2.13 3.21.84 1.015 2.182.866 2.508.715v-.376c-.501 0-1.004-.339-1.367-.74-.614-.663-1.441-1.742-2.118-2.957 1.128-.276 1.968-1.341 1.968-2.395 0-1.579-1.216-2.305-2.807-2.305-.319 0-.696.01-1.109.022zm.846.613c1.178 0 1.879.614 1.879 1.743-.001 1.104-.752 1.842-2.006 1.842-.463 0-.676-.012-1.002-.037v-3.51c.318-.038.733-.038 1.104-.038h.025z" clip-rule="evenodd"/>
</svg>
