<svg xmlns="http://www.w3.org/2000/svg" width="20" height="20" fill="none" viewBox="0 0 20 20">
    <path fill="#fff" d="M10 1c-4.962 0-9 4.038-9 9s4.038 9 9 9 9-4.038 9-9-4.038-9-9-9zm0 1.5c.295 0 .6.122.95.447.348.324.71.848 1.019 1.53.23.505.418 1.118.58 1.773H7.45c.163-.655.35-1.268.58-1.774.31-.681.67-1.205 1.02-1.53.349-.324.654-.446.949-.446zm-2.934.595c-.141.24-.277.49-.4.761-.32.706-.578 1.515-.772 2.394H3.508c.81-1.402 2.055-2.518 3.558-3.155zm5.868 0c1.503.637 2.748 1.753 3.558 3.155h-2.386c-.194-.879-.451-1.688-.772-2.394-.123-.27-.259-.52-.4-.761zM2.843 7.75h2.796C5.551 8.47 5.5 9.221 5.5 10c0 .779.051 1.53.14 2.25H2.842C2.62 11.54 2.5 10.784 2.5 10s.12-1.54.343-2.25zm4.324 0h5.666c.098.716.167 1.46.167 2.25s-.07 1.534-.167 2.25H7.167C7.069 11.534 7 10.79 7 10s.07-1.534.167-2.25zm7.194 0h2.796c.222.71.343 1.466.343 2.25s-.12 1.54-.343 2.25h-2.796c.088-.72.139-1.471.139-2.25 0-.779-.051-1.53-.14-2.25zm-10.853 6h2.386c.194.879.451 1.688.772 2.394.123.27.259.52.4.761-1.503-.637-2.749-1.753-3.558-3.155zm3.943 0h5.098c-.162.655-.35 1.268-.58 1.774-.31.681-.67 1.205-1.02 1.53-.349.324-.654.446-.949.446-.295 0-.6-.122-.95-.447-.348-.324-.71-.848-1.019-1.53-.23-.505-.417-1.118-.58-1.773zm6.655 0h2.386c-.81 1.402-2.055 2.518-3.558 3.155.141-.24.277-.49.4-.761.32-.706.578-1.515.772-2.394z"/>
</svg>
