<svg xmlns="http://www.w3.org/2000/svg" width="218" height="94" fill="none" viewBox="0 0 218 94">
    <path fill="#fff" fill-rule="evenodd" d="M118.96 47.582c0 6.998-4.959 11.637-11.931 11.637-7.612 0-13.029-5.64-13.029-12.574C94 39.614 99.494 34 106.742 34c4.618 0 8.541 2.322 10.59 5.64l-4.097 2.35c-1.187-2.073-3.925-3.553-7.137-3.342-4.247.279-7.442 3.967-7.338 8.214.108 4.386 3.312 7.676 8.294 7.676 3.82 0 6.25-1.836 7.083-4.607h-7.359V45.7h12.182v1.881zm21.913 6.583v4.573h-12.351c-.353 0-.701-.069-1.027-.203-.325-.135-.621-.332-.87-.58-.249-.249-.446-.544-.581-.868-.135-.325-.204-.673-.204-1.025v-18.9c0-.352.069-.7.204-1.025.135-.325.332-.62.581-.869.249-.248.545-.446.87-.58.326-.135.674-.204 1.027-.204H140.7v4.575h-10.069v5.161h9.207v4.503h-9.207v5.439l10.242.003zm25.693 2.353V34.484h-4.793v14.303l-9.7-13.285c-.221-.314-.515-.57-.856-.748-.342-.177-.721-.27-1.106-.27-.636 0-1.246.253-1.695.702-.45.449-.702 1.057-.702 1.692v21.861h4.793V44.404l9.699 13.316c.221.315.515.571.857.749.342.177.722.27 1.107.269h.171c.292 0 .582-.057.852-.169.27-.111.515-.275.722-.48.206-.207.37-.452.482-.721.111-.27.169-.558.169-.85zm7.776-5.713v-16.32h4.759v15.938c0 2.35 1.255 4.123 4.513 4.123 3.257 0 4.513-1.767 4.513-4.123V34.483h4.791v16.32c0 5.232-3.958 8.42-9.304 8.42-5.316-.005-9.272-3.188-9.272-8.42zm29.2.034l-4.097 2.39c1.32 3.604 4.584 5.99 9.549 5.995 5.173 0 8.818-2.768 8.818-7.312 0-4.948-4.087-6.233-7.937-7.445l-.013-.004c-3.676-1.109-4.618-1.905-4.618-3.395 0-1.386 1.181-2.426 3.195-2.426 2.464 0 3.784 1.283 4.652 3.119l4.027-2.322c-1.631-3.402-4.687-5.439-8.679-5.439-4.167 0-7.986 2.633-7.986 7.206 0 4.61 3.611 6.168 7.326 7.243 3.611 1.038 5.242 1.73 5.242 3.534 0 1.35-1.006 2.563-3.889 2.563-3.02 0-4.722-1.456-5.59-3.707z" clip-rule="evenodd"/>
    <path fill="#E0473E" d="M47.094 13.097c-18.76 0-33.97 15.178-33.97 33.9 0 18.723 15.21 33.905 33.97 33.905v13.093C21.086 93.995 0 72.958 0 46.998S21.086 0 47.094 0v13.097z"/>
    <path fill="#FFAB3F" d="M47.094 26.193c5.53 0 10.833 2.192 14.743 6.094S67.944 41.482 67.944 47c0 5.519-2.197 10.811-6.107 14.713-3.91 3.902-9.213 6.095-14.743 6.095v13.095c18.762 0 33.972-15.179 33.972-33.903 0-18.724-15.208-33.902-33.972-33.902v13.095z"/>
    <path fill="#3E4548" d="M47.094 67.806V26.191c-5.53 0-10.833 2.193-14.743 6.095-3.91 3.902-6.107 9.194-6.107 14.713 0 5.518 2.197 10.81 6.107 14.713 3.91 3.902 9.213 6.094 14.743 6.094z"/>
</svg>
