<svg xmlns="http://www.w3.org/2000/svg" width="120" height="52" fill="none" viewBox="0 0 120 52">
    <path fill="#fff" fill-rule="evenodd" d="M65.483 26.322c0 3.871-2.73 6.438-6.568 6.438-4.19 0-7.172-3.12-7.172-6.956 0-3.89 3.025-6.995 7.014-6.995 2.542 0 4.702 1.284 5.83 3.12l-2.256 1.3c-.653-1.147-2.16-1.966-3.928-1.85-2.338.155-4.097 2.195-4.04 4.545.06 2.426 1.823 4.246 4.566 4.246 2.102 0 3.44-1.016 3.899-2.549h-4.051v-2.34h6.706v1.041zm12.062 3.642v2.53h-6.799c-.194 0-.386-.039-.565-.113-.179-.074-.342-.183-.479-.32-.137-.138-.246-.302-.32-.481-.074-.18-.112-.372-.112-.567V20.557c0-.194.038-.386.112-.566.074-.18.183-.343.32-.48.137-.138.3-.247.48-.322.178-.074.37-.113.564-.113h6.704v2.531h-5.543v2.855h5.068v2.491h-5.068v3.01h5.638zm14.142 1.302v-12.19H89.05v7.913l-5.34-7.35c-.121-.173-.283-.315-.47-.413-.189-.098-.398-.15-.61-.15-.35 0-.685.14-.933.389-.247.248-.386.585-.386.936v12.093h2.638v-7.93l5.34 7.366c.121.174.283.316.471.415.189.098.397.149.61.148h.094c.16 0 .32-.031.468-.093.149-.061.284-.152.398-.266.114-.114.204-.25.265-.398.062-.15.093-.31.093-.47zm4.282-3.161v-9.029h2.619v8.817c0 1.3.691 2.281 2.484 2.281 1.793 0 2.484-.977 2.484-2.28v-8.817h2.638v9.028c0 2.894-2.179 4.657-5.122 4.657-2.926-.002-5.103-1.763-5.103-4.657zm16.073.019l-2.256 1.322c.727 1.994 2.524 3.314 5.257 3.316 2.847 0 4.853-1.531 4.853-4.044 0-2.738-2.249-3.449-4.368-4.119l-.007-.002c-2.024-.614-2.543-1.054-2.543-1.878 0-.767.65-1.343 1.759-1.343 1.356 0 2.083.71 2.561 1.726l2.216-1.285c-.897-1.882-2.58-3.008-4.777-3.008-2.294 0-4.396 1.456-4.396 3.986 0 2.55 1.988 3.412 4.033 4.006 1.987.575 2.885.958 2.885 1.956 0 .747-.554 1.417-2.14 1.417-1.663 0-2.599-.805-3.077-2.05z" clip-rule="evenodd"/>
    <path fill="#E0473E" d="M25.923 7.245c-10.327 0-18.699 8.397-18.699 18.754 0 10.357 8.372 18.755 18.7 18.755v7.243C11.606 51.997 0 40.36 0 26 0 11.638 11.607 0 25.923 0v7.245z"/>
    <path fill="#50BFBF" d="M25.924 14.49c3.043 0 5.963 1.213 8.115 3.371 2.152 2.16 3.362 5.087 3.362 8.14 0 3.052-1.21 5.98-3.362 8.139-2.152 2.158-5.072 3.371-8.116 3.371v7.244c10.328 0 18.7-8.396 18.7-18.754s-8.37-18.755-18.7-18.755v7.244z"/>
    <path fill="#FFAB3F" d="M25.923 37.51V14.487c-3.044 0-5.963 1.213-8.115 3.372-2.153 2.158-3.362 5.086-3.362 8.139 0 3.053 1.21 5.98 3.362 8.139 2.152 2.159 5.071 3.371 8.115 3.371z"/>
</svg>
