<?xml version="1.0" encoding="utf-8"?>
<!-- Generator: Adobe Illustrator 23.0.1, SVG Export Plug-In . SVG Version: 6.00 Build 0)  -->
<svg version="1.1" id="Layer_1" xmlns="http://www.w3.org/2000/svg" xmlns:xlink="http://www.w3.org/1999/xlink" x="0px" y="0px"
	 viewBox="0 0 24 24" style="enable-background:new 0 0 24 24;" xml:space="preserve">
<style type="text/css">
	.st0{fill:#FFFFFF;}
</style>
<path class="st0" d="M20.9,10.9h-7.8v-0.1c-0.3,0-0.6,0.1-0.9,0.1c-0.3,0-0.6,0-0.9-0.1v0.1H3.5c-0.5,0-0.9,0.4-0.9,0.9
	c0,0.5,0.4,0.9,0.9,0.9h7.8v0.1c0.3,0,0.6-0.1,0.9-0.1c0.3,0,0.6,0,0.9,0.1v-0.1h7.8c0.5,0,0.9-0.4,0.9-0.9
	C21.8,11.3,21.4,10.9,20.9,10.9z"/>
</svg>
