<svg xmlns="http://www.w3.org/2000/svg" width="94" height="94" fill="none" viewBox="0 0 94 94">
    <g filter="url(#filter0_d)">
        <path fill="#fff" fill-rule="evenodd" d="M47 15c17.67 0 32 14.33 32 32S64.67 79 47 79 15 64.67 15 47s14.33-32 32-32zm-4.407 21.532l14.461 9.338c.389.244.628.695.612 1.173 0 .47-.24.92-.628 1.164l-14.462 9.26c-.207.13-.438.2-.678.2-.223 0-.438-.061-.637-.174-.405-.243-.661-.704-.661-1.199V37.705c0-.495.256-.955.67-1.199.405-.243.926-.225 1.323.026z" clip-rule="evenodd"/>
    </g>
    <defs>
        <filter id="filter0_d" width="94" height="94" x="0" y="0" color-interpolation-filters="sRGB" filterUnits="userSpaceOnUse">
            <feFlood flood-opacity="0" result="BackgroundImageFix"/>
            <feColorMatrix in="SourceAlpha" values="0 0 0 0 0 0 0 0 0 0 0 0 0 0 0 0 0 0 127 0"/>
            <feOffset/>
            <feGaussianBlur stdDeviation="7.5"/>
            <feColorMatrix values="0 0 0 0 0 0 0 0 0 0 0 0 0 0 0 0 0 0 0.08 0"/>
            <feBlend in2="BackgroundImageFix" result="effect1_dropShadow"/>
            <feBlend in="SourceGraphic" in2="effect1_dropShadow" result="shape"/>
        </filter>
    </defs>
</svg>
